<?xml version="1.0" encoding="UTF-8"?>
<svg width="18px" height="18px" viewBox="0 0 18 18" version="1.1" xmlns="http://www.w3.org/2000/svg" xmlns:xlink="http://www.w3.org/1999/xlink">
    <!-- Generator: Sketch 51.2 (57519) - http://www.bohemiancoding.com/sketch -->
    <title>mediaWindow</title>
    <desc>Created with Sketch.</desc>
    <defs></defs>
    <g id="Page-1" stroke="none" stroke-width="1" fill="none" fill-rule="evenodd" stroke-linecap="round" stroke-linejoin="round">
        <g id="mediaWindow" stroke="#337AB7" stroke-width="2">
            <path d="M1,1 L6,6" id="wTLTail"></path>
            <polyline id="wTLArrow" transform="translate(4.000000, 4.000000) scale(-1, -1) translate(-4.000000, -4.000000) " points="2 6 2 2 6 2"></polyline>
            <path d="M12,1 L17,6" id="wTRTail" transform="translate(14.500000, 3.500000) scale(-1, 1) translate(-14.500000, -3.500000) "></path>
            <polyline id="wTRArrow" points="12 2 12 6 16 6"></polyline>
            <path d="M12,12 L17,17" id="wBRTail" transform="translate(14.500000, 14.500000) scale(-1, -1) translate(-14.500000, -14.500000) "></path>
            <polyline id="wBRArrow" points="12 16 12 12 16 12"></polyline>
            <path d="M1,12 L6,17" id="wBLTail" transform="translate(3.500000, 14.500000) scale(1, -1) translate(-3.500000, -14.500000) "></path>
            <polyline id="wBLArrow" points="6 16 6 12 2 12"></polyline>
        </g>
    </g>
</svg>