<?xml version="1.0" standalone="no"?>
<!DOCTYPE svg PUBLIC "-//W3C//DTD SVG 1.1//EN" "http://www.w3.org/Graphics/SVG/1.1/DTD/svg11.dtd" >
<svg xmlns="http://www.w3.org/2000/svg">
<metadata></metadata>
<defs>
<font id="futurafuturiscregular" horiz-adv-x="1413" >
<font-face units-per-em="2048" ascent="1511" descent="-537" />
<missing-glyph horiz-adv-x="558" />
<glyph horiz-adv-x="0" />
<glyph horiz-adv-x="682" />
<glyph unicode=" "  horiz-adv-x="558" />
<glyph unicode="&#x09;" horiz-adv-x="558" />
<glyph unicode="&#xa0;" horiz-adv-x="558" />
<glyph unicode="!" horiz-adv-x="622" d="M153 124q0 65 46.5 112t111.5 47t111.5 -47t46.5 -112t-46.5 -111.5t-111.5 -46.5t-111.5 46.5t-46.5 111.5zM190 373v1305h244v-1305h-244z" />
<glyph unicode="&#x22;" horiz-adv-x="910" d="M115 1678h273l-45 -672h-183zM522 1678h274l-46 -672h-183z" />
<glyph unicode="#" horiz-adv-x="1504" d="M48 494l36 220h271l43 283h-270l35 220h271l74 461h244l-73 -461h291l72 461h245l-73 -461h272l-36 -220h-271l-43 -283h270l-36 -220h-270l-80 -494h-243l78 494h-292l-76 -494h-245l76 494h-270zM599 714h293l43 283h-293z" />
<glyph unicode="$" d="M158 462l254 55q4 -114 70 -210q2 -2 2 -3q79 -100 218 -100q67 0 121 25t87 66t50.5 90.5t17.5 101.5q0 48 -15.5 89.5t-38 69.5t-57.5 53.5t-63 40.5t-66 31l-160 70q-57 25 -102.5 50.5t-92 63t-77.5 80.5t-51 102.5t-20 127.5q0 166 112 289t281 145v215h186v-213 q83 -12 139 -36t108 -71q83 -75 130 -168l-206 -120q-25 60 -77 105q-39 32 -81 46t-98 14q-103 0 -169 -52.5t-66 -149.5q0 -26 6 -49t23.5 -51t55.5 -54.5t94 -48.5l168 -67q98 -39 171 -88.5t115 -97.5t67.5 -104.5t34 -103.5t8.5 -100q0 -102 -32 -192.5t-88.5 -158 t-134 -113t-168.5 -62.5v-231h-186v220q-195 20 -328 169q-122 136 -142 325z" />
<glyph unicode="%" horiz-adv-x="2026" d="M80 1298.5q0 74.5 25 140t66.5 111t94.5 78t109 48.5t109 16q108 0 201.5 -53.5t148.5 -144.5t55 -195.5t-55 -195t-148.5 -144t-201.5 -53.5q-53 0 -109 15.5t-109 48.5t-94.5 78.5t-66.5 110.5t-25 139.5zM276 1299q0 -36 13.5 -73.5t39 -69.5t66 -52.5t89.5 -20.5 q48 0 88.5 20t66 52t40 69.5t14.5 74.5q0 36 -14 73t-39.5 69t-66 52.5t-89.5 20.5t-89.5 -20.5t-66 -53t-39 -69.5t-13.5 -72zM475 46l958 1660l120 -74l-959 -1661zM1138 379q0 75 25.5 140t67 110t94.5 78t109 48.5t109 15.5q108 0 201.5 -53t148.5 -143.5t55 -195.5 t-55 -195.5t-148.5 -144t-201.5 -53.5q-53 0 -109 15.5t-109 48.5t-94.5 78.5t-67 110.5t-25.5 140zM1335 379q0 -36 13.5 -73.5t38.5 -69.5t66 -52.5t90 -20.5q48 0 88.5 20t66 52t39.5 69.5t14 74.5q0 36 -13.5 73.5t-39 69.5t-66.5 52t-89 20q-49 0 -90 -20.5t-66 -53 t-38.5 -69.5t-13.5 -72z" />
<glyph unicode="&#x26;" horiz-adv-x="1619" d="M130 448q0 51 8.5 98t21.5 82.5t34.5 70t40 57.5t46.5 49.5t45 40t45 34.5q51 37 134 92q-71 74 -119 165t-48 183q0 59 15 115t47.5 106t78.5 87.5t112 60t145 22.5q97 0 175.5 -32t127 -84.5t74 -117t25.5 -133.5q0 -126 -72 -217q-34 -41 -95 -97.5t-113 -97.5 l294 -362l192 216l163 -171l-197 -227l309 -388h-311l-167 206q-60 -63 -142 -122q-86 -60 -168 -89t-198 -29q-115 0 -210 36.5t-159 101t-99 153t-35 191.5zM384 439q0 -34 9 -68.5t29.5 -68.5t49.5 -60.5t73.5 -42.5t96.5 -16q59 0 102 16.5t88 49.5q82 58 155 139 l-331 403q-44 -25 -98.5 -64.5t-85.5 -74.5q-41 -44 -64.5 -102.5t-23.5 -110.5zM572 1349q0 -70 61 -146l76 -91l94 67q56 40 78 85t22 80q0 28 -9.5 53.5t-28 48t-52 36t-77.5 13.5q-45 0 -77.5 -13.5t-48.5 -31t-25.5 -41t-11 -36.5t-1.5 -24z" />
<glyph unicode="'" horiz-adv-x="503" d="M115 1678h273l-45 -672h-183z" />
<glyph unicode="(" horiz-adv-x="800" d="M192 622q0 147 20 344t61 371q58 239 156 444l227 -87q-93 -222 -137 -400q-36 -144 -54.5 -338.5t-18.5 -333.5q0 -136 19 -333.5t54 -338.5q1 -1 4 -13.5t7 -26.5t11.5 -38.5l15 -49t18.5 -57.5t23 -65.5t27 -71.5t31 -76l-227 -89q-99 203 -156 446 q-46 193 -63.5 387.5t-17.5 325.5z" />
<glyph unicode=")" horiz-adv-x="800" d="M144 -448q16 37 31 76t27 71.5t23 65.5t19 58t15 49t11 38t7.5 26.5t3.5 13.5q36 141 55 338.5t19 333.5q0 139 -19 333.5t-55 338.5q-44 178 -137 400l227 87q98 -205 157 -444q41 -174 60.5 -371t19.5 -344q0 -131 -17.5 -325.5t-62.5 -387.5q-58 -243 -157 -446z" />
<glyph unicode="*" horiz-adv-x="1404" d="M266 1368l70 207l272 -107l-16 293h220l-16 -293l272 107l70 -207l-285 -74l187 -230l-178 -124l-160 246l-160 -246l-178 124l187 230z" />
<glyph unicode="+" horiz-adv-x="1250" d="M80 734v224h428v427h235v-427h428v-224h-428v-427h-235v427h-428z" />
<glyph unicode="," horiz-adv-x="622" d="M-9 -321l254 632l224 -81l-311 -623z" />
<glyph unicode="-" horiz-adv-x="794" d="M96 407v254h604v-254h-604z" />
<glyph unicode="." horiz-adv-x="622" d="M153 124q0 65 46.5 112t111.5 47t111.5 -47t46.5 -112t-46.5 -111.5t-111.5 -46.5t-111.5 46.5t-46.5 111.5z" />
<glyph unicode="/" horiz-adv-x="1345" d="M0 -441l958 2224l201 -91l-958 -2224z" />
<glyph unicode="0" d="M110 837q0 92 9 174.5t31.5 175t67.5 180.5t111 162q157 182 378 182q222 0 379 -182q65 -74 110 -161.5t67.5 -180.5t31 -175.5t8.5 -174.5q0 -94 -8.5 -176t-31 -173.5t-67.5 -178t-110 -160.5q-82 -93 -174.5 -138t-204.5 -45t-204.5 45t-173.5 138q-66 74 -111 160.5 t-67.5 177.5t-31.5 173.5t-9 176.5zM364 841q0 -324 118 -505q91 -139 225 -139q135 0 225 139q117 179 117 505q0 324 -117 501q-90 139 -225 139q-134 0 -225 -139q-118 -179 -118 -501z" />
<glyph unicode="1" d="M336 1443l139 235h407v-1678h-260v1443h-286z" />
<glyph unicode="2" d="M82 0l584 704q8 11 33.5 42t37 44.5t33.5 41.5t35.5 46t30.5 42t31 45q22 34 37 61t30 76.5t15 100.5q0 73 -31 135.5t-95.5 102.5t-149.5 40q-119 0 -204 -83.5t-90 -222.5h-249q10 214 140 366q73 85 171 127.5t229 42.5q103 0 190 -27.5t149.5 -75t106.5 -112 t65.5 -139.5t21.5 -157q0 -94 -29.5 -178t-90.5 -174q-17 -27 -36 -53.5t-47 -61t-44 -54t-56.5 -67.5t-55.5 -66l-268 -316h631v-230h-1125z" />
<glyph unicode="3" d="M115 453h249q9 -110 86 -183t197 -73q128 0 208 83.5t80 222.5q0 118 -76.5 196t-211.5 78h-50v220h50q23 0 43 1.5t48 7t50.5 15t46 26.5t39.5 40.5t26 58.5t10 79q0 119 -68 187.5t-183 68.5q-105 0 -171.5 -60t-73.5 -168h-249q13 158 84 263q37 55 88 95t107 60.5 t109 30t108 9.5q115 0 209 -35.5t157.5 -97.5t97.5 -148.5t34 -188.5q0 -231 -183 -356q75 -39 124 -101t69 -132t20 -151q0 -48 -7.5 -96t-25 -101.5t-45 -101t-71 -91.5t-98.5 -75.5t-132 -50.5t-168 -19q-87 0 -161 18.5t-125.5 48t-92.5 70t-65.5 80t-41.5 83.5 q-34 91 -41 187z" />
<glyph unicode="4" d="M48 240l1073 1557v-1328h178v-229h-178v-240h-243v240h-830zM494 469h384v566z" />
<glyph unicode="5" d="M67 285l192 161q13 -32 30.5 -61.5t48.5 -65.5t67.5 -61.5t90.5 -43t115 -17.5q88 0 157.5 30t112 82t65 118.5t22.5 142.5q0 161 -91.5 264t-248.5 103q-89 0 -169.5 -34t-135.5 -112h-85l263 887h695v-231h-523l-79 -285q54 4 76 4q214 0 363 -126q24 -21 46.5 -45.5 t49.5 -66t46.5 -88.5t32.5 -114t13 -141q0 -92 -22 -179t-71 -167.5t-120.5 -140.5t-178 -96t-235.5 -36q-349 0 -527 319z" />
<glyph unicode="6" d="M144 512q0 113 41 212t124 213l585 798l185 -139l-400 -539q43 7 83 7q74 0 145 -19.5t137 -62t116 -103t79.5 -151t29.5 -198.5q0 -118 -38.5 -220.5t-108.5 -179t-176 -120.5t-235 -44q-118 0 -221.5 39t-180 109t-121 173t-44.5 225zM398 515q0 -139 86 -228.5 t222.5 -89.5t223 89.5t86.5 228.5q0 141 -86 230t-226 89q-135 0 -220.5 -88.5t-85.5 -230.5z" />
<glyph unicode="7" d="M119 67l835 1380h-824v231h1240l-1049 -1735z" />
<glyph unicode="8" d="M178 477q0 137 58 238t166 157q-90 63 -137 154t-47 204q0 109 39 200.5t105.5 152.5t155.5 94.5t188.5 33.5t188.5 -33.5t156 -94.5t106 -152.5t39 -200.5q0 -113 -47.5 -204t-137.5 -154q109 -56 167.5 -157.5t58.5 -237.5q0 -119 -43.5 -217t-117 -161.5t-168.5 -98 t-201 -34.5t-201.5 34.5t-168.5 98t-116 161.5t-43 217zM432 482q0 -126 76.5 -205.5t198.5 -79.5t199 79.5t77 205.5q0 67 -24 121t-64 87.5t-88.5 51t-100 17.5t-100 -17.5t-88 -51t-63 -87.5t-23.5 -121zM453 1227q0 -62 23.5 -112.5t61.5 -79.5t81.5 -44t87.5 -15t87 15 t81 44t62 79.5t24 112.5q0 114 -71 184t-183.5 70t-183 -70t-70.5 -184z" />
<glyph unicode="9" d="M144 1150q0 116 39 218t110 178t178.5 120.5t237.5 44.5q108 0 200.5 -31t157.5 -84t111.5 -123t68.5 -148.5t22 -160.5q0 -112 -40.5 -210.5t-124.5 -212.5l-585 -798l-183 139l400 538q-35 -7 -75 -7q-74 0 -147.5 21t-140 65.5t-117.5 107t-81.5 151.5t-30.5 192z M398 1162q0 -142 86 -230t227 -88q135 0 220 87.5t85 230.5q0 139 -86.5 229t-223 90t-222.5 -90t-86 -229z" />
<glyph unicode=":" horiz-adv-x="622" d="M153 124q0 65 46.5 112t111.5 47t111.5 -47t46.5 -112t-46.5 -111.5t-111.5 -46.5t-111.5 46.5t-46.5 111.5zM153 930q0 65 46.5 111.5t111.5 46.5t111.5 -46.5t46.5 -111.5t-46.5 -112t-111.5 -47t-111.5 47t-46.5 112z" />
<glyph unicode=";" horiz-adv-x="622" d="M-9 -321l254 632l224 -81l-311 -623zM153 930q0 65 46.5 111.5t111.5 46.5t111.5 -46.5t46.5 -111.5t-46.5 -112t-111.5 -47t-111.5 47t-46.5 112z" />
<glyph unicode="&#x3c;" horiz-adv-x="1250" d="M80 734v206l1091 531v-244l-828 -390l828 -391v-245z" />
<glyph unicode="=" horiz-adv-x="1250" d="M80 551v211h1091v-211h-1091zM80 958v211h1091v-211h-1091z" />
<glyph unicode="&#x3e;" horiz-adv-x="1250" d="M80 201v245l828 391l-828 390v244l1091 -531v-206z" />
<glyph unicode="?" horiz-adv-x="1077" d="M130 1315q0 61 15.5 117.5t48 107.5t80 88.5t116 60t149.5 22.5q119 0 211 -49t145.5 -146t53.5 -229q0 -59 -12.5 -106.5t-36 -81.5t-46 -56t-54.5 -44q-51 -36 -97.5 -57.5t-153.5 -61.5q-25 -9 -37.5 -14.5t-35.5 -18.5t-35 -26.5t-21.5 -36.5t-9.5 -50 q0 -53 35 -90.5t90 -37.5q75 0 107 60q25 48 21 111h250q-4 -77 -19 -129.5t-48 -101.5q-107 -160 -314 -160q-71 0 -137 24t-118.5 68t-84.5 114t-32 156q0 48 11 90.5t26.5 73.5t42 58.5t49.5 45.5t57 35.5t56 26.5t55 22q16 6 56.5 20.5t55 20.5t37 17.5t36.5 23.5 q58 46 58 133q0 82 -42 129t-119 47q-74 0 -117 -44.5t-43 -136.5q0 -15 2.5 -45.5t2.5 -34.5h-249q-5 59 -5 85zM381 124q0 65 47 112t111.5 47t111 -47t46.5 -112t-46.5 -111.5t-111.5 -46.5t-111.5 46.5t-46.5 111.5z" />
<glyph unicode="@" horiz-adv-x="1829" d="M82 827q0 188 66 350.5t181 277.5t277.5 180.5t349.5 65.5q133 0 252.5 -32t218 -95t171 -151.5t112 -207.5t39.5 -257q0 -118 -28.5 -232t-90.5 -196q-53 -69 -131.5 -114t-158.5 -45q-12 0 -25 1.5t-41 10t-50.5 23.5t-44 47t-29.5 75q-54 -78 -135.5 -124.5 t-177.5 -46.5q-72 0 -135 26t-112.5 75t-78.5 127t-29 174t26 179.5t70 142t101 101t119 63t124 20.5q20 0 41.5 -2.5t55.5 -12.5t63 -26t57.5 -47t44.5 -73l26 130h173l-98 -505q-16 -84 -16 -114q0 -53 25 -76.5t55 -23.5q38 0 83 32.5t70 67.5q35 49 60 151t25 190 q0 85 -23 168t-73 161t-121.5 137t-176.5 95t-230 36q-150 0 -283.5 -56.5t-229 -153.5t-150.5 -232t-55 -286q0 -143 49.5 -273.5t148 -233t230.5 -151.5q139 -50 305 -50q113 0 242.5 25.5t250.5 77.5l43 -153q-236 -99 -542 -99q-191 0 -345 55t-263 149 q-40 34 -75.5 74.5t-75 101.5t-67.5 129t-46 159.5t-18 190.5zM679 762q0 -108 52.5 -167.5t130.5 -59.5q53 0 102.5 24.5t87 68t60 107t22.5 137.5q0 11 -1 23.5t-5 35t-11 42t-21.5 41.5t-34 37.5t-49.5 26t-68 10.5q-52 0 -99.5 -22t-84.5 -62t-59 -103t-22 -139z" />
<glyph unicode="A" horiz-adv-x="1648" d="M9 0l835 1774l795 -1774h-278l-177 407h-712l-184 -407h-279zM576 647h507l-249 565z" />
<glyph unicode="B" horiz-adv-x="1308" d="M192 0v1678h254h18q52 0 80 -0.5t77 -5t83 -13.5t76.5 -26.5t79.5 -43.5q85 -58 137 -151.5t52 -227.5q0 -40 -5.5 -75t-20 -76t-45.5 -81t-77 -75q76 -23 134 -67.5t91.5 -101t50 -116t16.5 -120.5q0 -41 -7 -86t-24.5 -98t-52 -105t-83.5 -92q-35 -29 -74 -50 t-82.5 -33.5t-76 -20t-80.5 -10t-69 -3t-66 -0.5h-386zM450 240h154q79 0 140 16.5t96 41.5t57.5 60t30 67.5t7.5 68.5q0 37 -8.5 70.5t-31 67.5t-58 58t-94.5 39.5t-135 15.5h-158v-505zM450 956h78q19 0 33 0.5t45 5.5t53.5 13.5t51 26.5t46.5 43.5t30.5 66t12.5 91.5 q0 47 -12 85t-29.5 62t-44 42t-49.5 26.5t-51.5 13t-43.5 5.5t-33 1h-87v-482z" />
<glyph unicode="C" horiz-adv-x="1547" d="M115 832q0 116 24 224.5t86 224t159 207.5q126 120 274.5 171.5t331.5 51.5q149 0 254.5 -33t193.5 -91v-302q-192 186 -453 186q-134 0 -247 -48.5t-190.5 -133t-120.5 -202.5t-43 -255q0 -133 44.5 -248.5t123 -198.5t190.5 -131t243 -48q249 0 453 194v-306 q-198 -128 -460 -128q-348 0 -594 233q-269 257 -269 633z" />
<glyph unicode="D" horiz-adv-x="1605" d="M192 0v1678h352q100 0 174.5 -6t154.5 -22.5t152 -50t141 -85.5q80 -59 140 -133t94 -143t55.5 -146t28.5 -136t7 -119q0 -210 -87 -385.5t-252 -291.5q-71 -50 -143 -82.5t-149.5 -49t-150.5 -22.5t-170 -6h-347zM450 240h108q62 0 107.5 3t107.5 14t120.5 36.5 t110.5 65.5q104 79 160.5 204t56.5 274q0 146 -55.5 276t-159.5 207q-52 39 -111.5 64.5t-122 36t-109 14t-105.5 3.5h-108v-1198z" />
<glyph unicode="E" horiz-adv-x="1240" d="M192 0v1678h924v-240h-666v-403h647v-239h-647v-556h666v-240h-924z" />
<glyph unicode="F" horiz-adv-x="1116" d="M192 0v1678h839v-240h-581v-403h561v-239h-561v-796h-258z" />
<glyph unicode="G" horiz-adv-x="1868" d="M115 837q0 172 59.5 332t180.5 285q71 75 154.5 127.5t167.5 79.5t158.5 38.5t151.5 11.5q283 0 511 -161q113 -81 184 -182l-182 -172q-21 30 -44.5 58.5t-71 70.5t-100.5 72t-131.5 52t-165.5 22q-130 0 -243 -48.5t-192 -132.5t-123.5 -201.5t-44.5 -251.5 q0 -136 47.5 -254.5t128 -200.5t190 -129t230.5 -47q98 0 184.5 32.5t151 89.5t107.5 135.5t58 169.5h-417v239h690v-53q0 -70 -5.5 -128t-20.5 -128.5t-46.5 -141.5t-78.5 -138q-31 -43 -66 -81t-93 -83.5t-123 -77.5t-156.5 -53.5t-192.5 -21.5q-359 0 -603 245 q-254 253 -254 626z" />
<glyph unicode="H" horiz-adv-x="1614" d="M192 0v1678h258v-658h714v658h260v-1678h-260v782h-714v-782h-258z" />
<glyph unicode="I" horiz-adv-x="641" d="M192 0v1678h258v-1678h-258z" />
<glyph unicode="J" horiz-adv-x="900" d="M-43 53l125 215q75 -62 174 -62q40 0 72.5 12.5t52.5 33t30 36t16 30.5q23 54 23 272v1088h259v-1086q0 -126 -11.5 -215t-50.5 -169q-58 -119 -162 -180.5t-231 -61.5q-163 0 -297 87z" />
<glyph unicode="K" horiz-adv-x="1461" d="M192 0v1678h258v-669l647 669h336l-757 -761l762 -917h-341l-647 805v-805h-258z" />
<glyph unicode="L" horiz-adv-x="976" d="M192 0v1678h258v-1438h490v-240h-748z" />
<glyph unicode="M" horiz-adv-x="2127" d="M144 0l352 1802l583 -1299l588 1299l317 -1802h-264l-167 1011l-489 -1088l-481 1090l-176 -1013h-263z" />
<glyph unicode="N" horiz-adv-x="1854" d="M192 0v1788l1212 -1271v1161h259v-1779l-1213 1270v-1169h-258z" />
<glyph unicode="O" horiz-adv-x="1973" d="M115 837q0 182 66.5 344t181.5 278t277.5 184t347 68t347 -68t277.5 -184t181 -278t66 -344q0 -181 -66 -342t-180.5 -277.5t-277 -184t-348 -67.5t-348 67.5t-277.5 184t-181 277.5t-66 342zM384 837q0 -137 44.5 -254t123.5 -200t191.5 -130t244 -47t244 47t191.5 130 t123.5 200t44.5 254t-44.5 255t-123.5 201t-191.5 130.5t-244 47.5t-244 -47.5t-191.5 -130.5t-123.5 -201t-44.5 -255z" />
<glyph unicode="P" horiz-adv-x="1192" d="M192 0v1678h368q107 0 194.5 -17.5t173.5 -73.5q60 -40 102.5 -92t64.5 -108t31.5 -106.5t9.5 -101.5q0 -122 -46 -214t-118 -153q-154 -131 -409 -131h-113v-681h-258zM450 920h113q27 0 52.5 2t58.5 8.5t60 18t54.5 31.5t46.5 46.5t31 66.5t12 89q0 50 -13.5 90.5 t-34 67t-50.5 45.5t-57 29t-61 15.5t-55.5 7t-46.5 1.5h-110v-518z" />
<glyph unicode="Q" horiz-adv-x="1978" d="M115 837q0 182 66.5 344t181.5 278t278 184t349 68q184 0 346.5 -68t277.5 -184t181 -278t66 -344q0 -351 -231 -599l272 -272h-320l-123 128q-99 -66 -206 -97t-251 -31q-129 0 -243.5 27.5t-203 76t-162 115t-124.5 143.5t-86 163t-51.5 172.5t-16.5 173.5zM384 836.5 q0 -137.5 45 -255t124.5 -200t192.5 -129t244 -46.5q159 0 282 70l-392 387h320l252 -253q66 79 104 180.5t38 246.5q0 137 -45.5 255t-124.5 201t-191.5 130.5t-242.5 47.5q-131 0 -244 -47.5t-192.5 -130.5t-124.5 -201t-45 -255.5z" />
<glyph unicode="R" horiz-adv-x="1331" d="M192 0v1678h299q65 0 110.5 -2.5t108 -11.5t119 -30t106.5 -54q57 -39 98 -91t62 -107.5t30 -103.5t9 -94q0 -177 -103.5 -303.5t-271.5 -164.5l526 -716h-313l-478 688h-44v-688h-258zM450 908h80q22 0 41.5 1t56.5 6.5t67 15.5t65.5 30.5t59 48.5t39.5 72.5t16 99.5 q0 49 -12.5 89t-32.5 66.5t-50 45.5t-58.5 29.5t-64.5 16.5t-62.5 7.5t-57.5 1.5h-87v-530z" />
<glyph unicode="S" horiz-adv-x="1290" d="M96 462l254 55q2 -60 21 -116.5t50 -96.5q42 -56 94 -77t123 -21q70 0 125 23.5t88 64t49.5 89.5t16.5 104q0 48 -15.5 89.5t-38 69.5t-57.5 53.5t-63.5 40.5t-66.5 31l-161 70q-56 25 -101.5 50t-92 63t-78 81t-51.5 102.5t-20 127.5q0 98 40 183t107.5 141.5t157 89 t186.5 32.5q207 0 336 -115q81 -71 130 -170l-207 -120q-26 62 -76 105q-38 33 -79.5 46.5t-96.5 13.5q-104 0 -171 -53t-67 -146q0 -135 179 -206l168 -67q40 -15 74.5 -31.5t76.5 -41.5t75.5 -53t66.5 -67t55.5 -82.5t36 -100.5t13.5 -120q0 -156 -70 -278.5t-194 -190.5 t-280 -68q-246 0 -395 171q-122 136 -142 325z" />
<glyph unicode="T" horiz-adv-x="1072" d="M23 1438v240h1026v-240h-383v-1438h-259v1438h-384z" />
<glyph unicode="U" horiz-adv-x="1623" d="M192 599v1079h258v-1012q0 -59 2.5 -98.5t14 -94.5t34.5 -96q41 -75 121 -123t190 -48q102 0 184.5 43t127.5 128q33 61 42 128.5t9 160.5v1012h258v-1079q0 -264 -155 -436q-178 -197 -466 -197q-287 0 -465 197q-155 172 -155 436z" />
<glyph unicode="V" horiz-adv-x="1509" d="M9 1678h279l467 -1170l466 1170h279l-745 -1783z" />
<glyph unicode="W" horiz-adv-x="2362" d="M9 1678h279l441 -1122l453 1203l437 -1203l457 1122h277l-750 -1783l-437 1186l-443 -1186z" />
<glyph unicode="X" horiz-adv-x="1370" d="M23 0l528 875l-462 803h288l325 -569l336 569h288l-485 -803l506 -875h-288l-366 642l-382 -642h-288z" />
<glyph unicode="Y" horiz-adv-x="1356" d="M0 1678h288l391 -676l389 676h288l-549 -955v-723h-258v723z" />
<glyph unicode="Z" horiz-adv-x="1384" d="M71 0l825 1438h-690v240h1107l-824 -1438h805v-240h-1223z" />
<glyph unicode="[" horiz-adv-x="780" d="M211 -503v2264h459v-220h-215v-1824h215v-220h-459z" />
<glyph unicode="\" horiz-adv-x="1345" d="M187 1692l201 91l959 -2224l-202 -91z" />
<glyph unicode="]" horiz-adv-x="780" d="M110 -283h216v1824h-216v220h460v-2264h-460v220z" />
<glyph unicode="^" horiz-adv-x="1255" d="M39 887l430 791h317l431 -791h-263l-326 604l-326 -604h-263z" />
<glyph unicode="_" horiz-adv-x="1006" d="M0 -139h1006v-220h-1006v220z" />
<glyph unicode="`" horiz-adv-x="1226" d="M206 1582l226 114l302 -393l-135 -86z" />
<glyph unicode="a" horiz-adv-x="1322" d="M96 530q0 86 21 167.5t64.5 152.5t104 124t144 83.5t181.5 30.5q206 0 319 -153v124h245v-1059h-245v110q-124 -144 -322 -144q-94 0 -176.5 31t-143 85.5t-104.5 126t-66 153.5t-22 168zM350 525q0 -91 34 -167t102.5 -123.5t160.5 -47.5q137 0 217 95.5t80 245.5 q0 82 -24.5 148.5t-66.5 107t-94.5 62t-111.5 21.5q-88 0 -156.5 -46t-104.5 -123.5t-36 -172.5z" />
<glyph unicode="b" horiz-adv-x="1322" d="M149 0v1761h244v-826q113 153 318 153q98 0 182 -30.5t144.5 -83.5t104 -124t64.5 -152.5t21 -167.5q0 -128 -43 -236t-115 -178.5t-165 -110t-193 -39.5q-193 0 -318 144v-110h-244zM379 522q0 -95 34.5 -170t103 -120t162.5 -45q90 0 158 47t101.5 123t33.5 168 q0 147 -81 244.5t-212 97.5q-59 0 -112 -21.5t-95.5 -62.5t-67.5 -108.5t-25 -152.5z" />
<glyph unicode="c" horiz-adv-x="1049" d="M96 522q0 259 172 422q82 77 178.5 110.5t219.5 33.5q181 0 306 -77v-321q-50 82 -132.5 129.5t-173.5 47.5q-60 0 -115.5 -22.5t-101 -63.5t-72.5 -107t-27 -146q0 -94 36 -170.5t108.5 -123.5t168.5 -47q188 0 309 179v-320q-138 -80 -291 -80q-274 0 -434 164 q-151 151 -151 392z" />
<glyph unicode="d" horiz-adv-x="1322" d="M96 532q0 85 21 166t64.5 151.5t104 124t144.5 84t181 30.5q206 0 319 -153v826h245v-1761h-245v110q-123 -144 -329 -144q-91 0 -171.5 30.5t-141 84t-104 125t-66 155t-22.5 171.5zM350 522q0 -92 34 -167t102 -121.5t159 -46.5q93 0 162 45t103 120t34 170 q0 85 -25 152.5t-67.5 108.5t-95 62.5t-111.5 21.5q-132 0 -213.5 -98.5t-81.5 -246.5z" />
<glyph unicode="e" horiz-adv-x="1212" d="M96 522q0 169 62 297t178 198.5t270 70.5q136 0 238.5 -52.5t164.5 -141.5q47 -70 72.5 -173.5t25.5 -212.5v-39h-757q2 -70 28 -125.5t68 -88.5t90.5 -50.5t98.5 -17.5q94 0 168 58q10 7 23.5 20t40 49t43.5 77l206 -115q-62 -113 -138 -180q-45 -40 -101 -68 t-108.5 -40.5t-90 -17t-70.5 -4.5q-75 0 -147 20.5t-138.5 64.5t-116.5 108t-80 157.5t-30 205.5zM364 670h491q-22 91 -88 144t-156 53q-88 0 -155.5 -54.5t-91.5 -142.5z" />
<glyph unicode="f" horiz-adv-x="679" d="M48 839v220h135v336q0 45 3 79t12.5 79.5t33.5 86t60 73.5q92 79 225 79q76 0 178 -38v-249q-86 48 -158 48q-61 0 -87 -39q-23 -35 -23 -119v-336h268v-220h-268v-839h-244v839h-135z" />
<glyph unicode="g" horiz-adv-x="1322" d="M96 530q0 86 21 167t64 152t103.5 124t145.5 84t183 31q198 0 317 -144v115h245v-1013q0 -42 -0.5 -60t-3 -59t-8.5 -68.5t-17 -65t-29 -71t-43 -65.5q-152 -194 -427 -194q-92 0 -174.5 24t-151.5 71.5t-118.5 123t-72.5 172.5h243q62 -170 276 -170q54 0 97.5 12t72 31 t50 46t33 53t18 57t8.5 52.5t2 43.5v138q-124 -151 -322 -151q-94 0 -176.5 30.5t-143 84.5t-104.5 125t-66 154t-22 170zM350 530q0 -96 34.5 -173t102.5 -123.5t158 -46.5q93 0 162 45t103 120t34 170q0 85 -25 152.5t-67.5 108.5t-95 62.5t-111.5 21.5q-88 0 -156 -46 t-103.5 -122t-35.5 -169z" />
<glyph unicode="h" horiz-adv-x="1207" d="M149 0v1761h244v-793q112 120 286 120q55 0 104 -11t81.5 -26.5t60.5 -37t42 -37.5t25 -32q24 -35 38.5 -74t20 -82.5t7 -70t1.5 -68.5v-649h-245v626v42.5t-2 35t-7 38.5t-14.5 32t-24.5 36q-48 57 -140 57q-64 0 -110.5 -26t-72.5 -64q-30 -45 -40 -111.5t-10 -155.5 v-510h-244z" />
<glyph unicode="i" horiz-adv-x="540" d="M112 1495q0 65 46.5 111.5t111.5 46.5t112 -46.5t47 -111.5t-47 -111.5t-112 -46.5t-111.5 46.5t-46.5 111.5zM149 0v1059h244v-1059h-244z" />
<glyph unicode="j" horiz-adv-x="540" d="M112 1495q0 65 46.5 111.5t111.5 46.5t112 -46.5t47 -111.5t-47 -111.5t-112 -46.5t-111.5 46.5t-46.5 111.5zM149 -503v1562h244v-1562h-244z" />
<glyph unicode="k" horiz-adv-x="1102" d="M149 0v1761h244v-1066l350 364h321l-453 -441l486 -618h-311l-393 508v-508h-244z" />
<glyph unicode="l" horiz-adv-x="540" d="M149 0v1761h244v-1761h-244z" />
<glyph unicode="m" horiz-adv-x="1749" d="M149 0v1059h244v-98q100 127 263 127q21 0 41 -2t54 -11t63 -24.5t61.5 -47t54.5 -73.5q31 47 72 80t84.5 49t81 22.5t76.5 6.5q204 0 302 -168q55 -89 55 -266v-654h-245v583q0 125 -21 188q-38 96 -142 96q-56 0 -93 -24.5t-55 -56.5q-48 -72 -48 -240v-546h-245v583 q0 46 -6 102t-17 86q-37 96 -142 96q-94 0 -148 -81q-28 -42 -37 -101t-9 -139v-546h-244z" />
<glyph unicode="n" horiz-adv-x="1207" d="M149 0v1059h244v-98q111 127 290 127q109 0 189 -40.5t122 -103.5q28 -41 43.5 -99t18.5 -99.5t3 -96.5v-649h-245v590v6v37t-2 38t-5 41t-10 38.5t-16.5 37t-24.5 31.5t-34 26t-45.5 15.5t-58.5 6.5q-44 0 -79 -11.5t-58 -30t-40 -48.5t-26 -58.5t-14 -68t-6.5 -70.5 t-1.5 -72v-508h-244z" />
<glyph unicode="o" horiz-adv-x="1322" d="M96 528q0 120 43.5 224.5t118.5 178t179.5 115.5t223.5 42t223.5 -42t180 -115.5t119 -178t43.5 -224.5q0 -119 -43.5 -224t-119 -179t-180 -116.5t-223 -42.5t-223.5 42.5t-180 116.5t-118.5 179t-43.5 224zM350 525q0 -70 18 -127.5t48 -96t70.5 -65t84 -38t90.5 -11.5 t90.5 11.5t84 38t70.5 65t48 96t18 127.5q0 72 -18 130.5t-48.5 97t-71 65t-84 38t-89.5 11.5t-89.5 -11.5t-84 -38t-71 -65t-48.5 -97t-18 -130.5z" />
<glyph unicode="p" horiz-adv-x="1322" d="M149 -503v1562h244v-115q36 43 80 73t87.5 44.5t80.5 20.5t73 6q103 0 196.5 -39.5t163.5 -110t111.5 -176t41.5 -230.5q0 -101 -29 -191.5t-79 -158t-115 -117t-139 -74.5t-149 -25q-27 0 -60.5 5.5t-80 20.5t-95 48.5t-87.5 81.5v-625h-244zM379 525q0 -68 19.5 -128.5 t56 -107.5t94.5 -74.5t130 -27.5q89 0 157 46.5t102 123.5t34 173q0 80 -24.5 145t-66.5 106.5t-94 63.5t-108 22q-59 0 -112 -22t-95.5 -63.5t-67.5 -108t-25 -148.5z" />
<glyph unicode="q" horiz-adv-x="1322" d="M96 530q0 86 21 167t64.5 152t104 124t144.5 84t181 31q203 0 319 -144v115h245v-1562h-245v620q-121 -151 -326 -151q-94 0 -176 30.5t-142 84.5t-103.5 125t-65 154t-21.5 170zM350 528q0 -97 34.5 -173.5t102.5 -122t158 -45.5q60 0 113.5 21t95 61.5t66 105.5 t24.5 147q0 85 -25 152.5t-67.5 108.5t-95 62.5t-111.5 21.5q-133 0 -214 -96.5t-81 -242.5z" />
<glyph unicode="r" horiz-adv-x="828" d="M149 0v1059h244v-96q102 125 252 125q48 0 101 -15.5t98 -46.5l-110 -223q-60 50 -140 50q-107 0 -158 -84q-27 -43 -35 -96.5t-8 -121.5v-551h-244z" />
<glyph unicode="s" horiz-adv-x="895" d="M82 230l206 93q6 -21 17 -41t30.5 -43.5t52.5 -37.5t74 -14q57 0 87.5 31t30.5 84q0 44 -24.5 73.5t-86.5 60.5q-19 10 -97.5 45.5t-112.5 57.5q-65 42 -94.5 94t-29.5 138q0 63 20.5 119.5t60 101t104 70.5t144.5 26q25 0 47.5 -2.5t60.5 -14.5t69.5 -32.5t66 -61.5 t58.5 -97l-203 -109q-14 41 -44.5 68.5t-72.5 27.5q-5 0 -11 -0.5t-20 -4t-24 -10t-18.5 -21t-8.5 -33.5q0 -41 30.5 -65.5t110.5 -62.5q137 -58 202 -107q127 -94 127 -237q0 -70 -23 -130t-62 -101.5t-89 -71t-104 -43.5t-108 -14q-76 0 -146 28t-129.5 89t-90.5 147z" />
<glyph unicode="t" horiz-adv-x="603" d="M57 839v220h106v379h244v-379h187v-220h-187v-839h-244v839h-106z" />
<glyph unicode="u" horiz-adv-x="1202" d="M149 446v613h244v-609q0 -43 1.5 -67.5t12.5 -61t32 -62.5q56 -72 162.5 -72t162.5 72q21 26 32 62.5t12.5 61t1.5 67.5v609h244v-613q0 -56 -3 -93.5t-13.5 -85t-34 -89t-61.5 -80.5q-39 -40 -89 -68.5t-99 -41t-86.5 -17.5t-70.5 -5q-30 0 -65.5 5t-83.5 17.5t-98 41 t-89 68.5q-38 39 -62 80.5t-34 89t-13 85t-3 93.5z" />
<glyph unicode="v" horiz-adv-x="1125" d="M14 1059h278l271 -604l271 604h278l-549 -1130z" />
<glyph unicode="w" horiz-adv-x="1724" d="M14 1059h278l273 -604l297 695l297 -695l274 604h278l-552 -1130l-297 675l-297 -675z" />
<glyph unicode="x" horiz-adv-x="1244" d="M14 0l468 572l-377 487h293l233 -309l236 309h302l-390 -487l453 -572h-297l-304 395l-315 -395h-302z" />
<glyph unicode="y" horiz-adv-x="1212" d="M14 1059h297l311 -597l298 597h278l-803 -1562h-278l370 700z" />
<glyph unicode="z" horiz-adv-x="1202" d="M19 0l685 832h-541v227h1021l-681 -833h628v-226h-1112z" />
<glyph unicode="{" horiz-adv-x="1226" d="M321 522v201q141 30 141 209v431q0 47 4 83t15 75.5t34 72t57 57.5q81 60 260 60h117v-211h-19q-41 0 -65.5 -1.5t-60 -11t-54.5 -28.5q-43 -43 -43 -160v-371q0 -127 -28 -187q-17 -35 -48.5 -64.5t-51 -40.5t-28.5 -14q9 -3 28.5 -13.5t51 -39.5t48.5 -64 q28 -60 28 -187v-371q0 -117 43 -160q19 -19 54.5 -28.5t60 -11t65.5 -1.5h19v-210h-117q-179 0 -260 59q-34 25 -57 57.5t-34 72t-15 75.5t-4 83v431q0 178 -141 208z" />
<glyph unicode="|" horiz-adv-x="1207" d="M484 -628v2514h239v-2514h-239z" />
<glyph unicode="}" horiz-adv-x="1226" d="M321 -254h19q41 0 65.5 1.5t60 11t53.5 28.5q44 43 44 160v371q0 125 29 187q16 35 47.5 64t50.5 39.5t28 13.5q-8 3 -27.5 14t-51 40.5t-47.5 64.5q-29 62 -29 187v371q0 117 -44 160q-18 19 -53.5 28.5t-60 11t-65.5 1.5h-19v211h118q177 0 258 -60q35 -25 58 -57.5 t33.5 -72t14.5 -75.5t4 -83v-431q0 -179 142 -209v-201q-142 -30 -142 -208v-431q0 -47 -4 -83t-14.5 -75.5t-33.5 -72t-58 -57.5q-81 -59 -258 -59h-118v210z" />
<glyph unicode="~" horiz-adv-x="1657" d="M220 729q59 135 127 208q97 105 231 105q104 0 275 -77q50 -23 77 -34t72.5 -23t85.5 -12q42 0 70 10.5t54 33.5q45 36 82 107l144 -82q-61 -150 -166 -234q-90 -70 -208 -70q-21 0 -42 2t-44 8t-38.5 9.5t-42.5 14t-37 14t-41 16.5t-37 16q-165 66 -219 66 q-74 0 -129 -55q-47 -47 -72 -114z" />
<glyph unicode="&#xa7;" horiz-adv-x="1408" d="M201 -41h240q-4 -84 41 -153q70 -106 204 -106q59 0 104.5 19.5t72 52t39.5 71.5t13 83q0 91 -76 156q-13 11 -26 20.5t-31.5 18.5t-29.5 14.5t-35.5 14.5t-32 11.5t-37.5 12t-34 11.5q-179 62 -258 126q-58 48 -99 133t-41 196q0 130 63 230t179 148q-35 19 -66.5 45.5 t-63 65.5t-50 95.5t-18.5 122.5q0 131 61.5 232.5t171 157t249.5 55.5q267 0 390 -194q41 -65 60.5 -150t15.5 -168h-239q12 97 -40 181q-62 101 -185 101q-58 0 -105.5 -21t-76 -55t-43.5 -74t-15 -82q0 -35 11 -64.5t27 -49t42 -37t47.5 -28t52.5 -22.5q37 -14 105.5 -37 t103.5 -36.5t83.5 -39.5t88.5 -58q46 -37 76.5 -80t44 -86t18 -76t4.5 -71q0 -139 -66 -237.5t-171 -151.5q189 -94 189 -327q0 -107 -36.5 -194t-100.5 -144.5t-150.5 -89t-185.5 -31.5q-151 0 -264 66.5t-173 190.5q-51 109 -48 232zM469 642q0 -107 69 -177t173 -70 q106 0 174.5 70.5t68.5 176.5q0 60 -22.5 108.5t-58 78t-77.5 45t-85 15.5q-41 0 -83 -15.5t-78 -44.5t-58.5 -78t-22.5 -109z" />
<glyph unicode="&#xa9;" horiz-adv-x="1897" d="M80 837q0 184 65.5 346t180 278t276.5 183t347 67t346.5 -67t276 -183t180.5 -278t66 -346t-66 -345.5t-180.5 -277t-276 -182t-346.5 -66.5t-347 66.5t-276.5 182t-180 277t-65.5 345.5zM222 837q0 -156 54 -292.5t149 -235.5t231 -156t293 -57t293 57t231 156 t148.5 235.5t53.5 292.5t-53.5 293.5t-148.5 237t-231 157t-293 57.5t-293 -57.5t-231 -157t-149 -237t-54 -293.5zM446 834q0 152 71 272.5t196.5 187.5t283.5 67q69 0 136.5 -15.5t151.5 -63.5v-218q-66 60 -143.5 92.5t-154.5 32.5q-151 0 -250 -100.5t-99 -254.5 t98.5 -249.5t253.5 -95.5q157 0 295 126v-220q-143 -79 -298 -79q-114 0 -214.5 39.5t-172 108t-113 165t-41.5 205.5z" />
<glyph unicode="&#xab;" horiz-adv-x="1269" d="M96 546l412 542l162 -116l-325 -426l325 -427l-162 -114zM565 546l413 542l163 -116l-327 -426l327 -427l-163 -114z" />
<glyph unicode="&#xad;" horiz-adv-x="794" d="M96 407v254h604v-254h-604z" />
<glyph unicode="&#xae;" horiz-adv-x="1897" d="M80 837q0 184 65.5 346t180 278t276.5 183t347 67t346.5 -67t276 -183t180.5 -278t66 -346t-66 -345.5t-180.5 -277t-276 -182t-346.5 -66.5t-347 66.5t-276.5 182t-180 277t-65.5 345.5zM222 837q0 -156 54 -292.5t149 -235.5t231 -156t293 -57t293 57t231 156 t148.5 235.5t53.5 292.5t-53.5 293.5t-148.5 237t-231 157t-293 57.5t-293 -57.5t-231 -157t-149 -237t-54 -293.5zM615 338v1006h260q29 0 55 -1.5t64 -8.5t69 -19t64 -35.5t55.5 -54.5t37 -78.5t14.5 -106.5q0 -112 -60 -185t-161 -93l336 -424h-215l-297 398h-48v-398 h-174zM789 894h64q23 0 41 1t44.5 5.5t46 14.5t38 25t28.5 41t10 59q0 30 -8.5 54t-20 39t-31.5 26t-35.5 16t-39.5 8t-36 3h-32h-69v-292z" />
<glyph unicode="&#xb0;" horiz-adv-x="1226" d="M249 1313q0 100 48.5 184t132 132.5t183.5 48.5t184 -48.5t132.5 -132.5t48.5 -184t-48.5 -184t-132.5 -132t-184 -48t-183.5 48t-132 132t-48.5 184zM402 1312.5q0 -96.5 60.5 -158t151 -61.5t151 61.5t60.5 158t-61 159t-151 62.5t-150.5 -62.5t-60.5 -159z" />
<glyph unicode="&#xb7;" horiz-adv-x="558" d="M82 855q0 81 58 139t138.5 58t138.5 -58t58 -139q0 -34 -12.5 -68t-36 -63t-62 -47t-86 -18t-86 18t-62 47t-36 63t-12.5 68z" />
<glyph unicode="&#xbb;" horiz-adv-x="1269" d="M130 119l325 427l-325 426l162 116l412 -542l-412 -541zM599 119l326 427l-326 426l163 116l413 -542l-413 -541z" />
<glyph unicode="&#x401;" horiz-adv-x="1240" d="M192 0v1678h924v-240h-666v-403h647v-239h-647v-556h666v-240h-924zM249 1998q0 65 46.5 111.5t111.5 46.5t111.5 -46.5t46.5 -111.5t-46.5 -111.5t-111.5 -46.5t-111.5 46.5t-46.5 111.5zM748 1998q0 65 46.5 111.5t111.5 46.5t111.5 -46.5t46.5 -111.5t-46.5 -111.5 t-111.5 -46.5t-111.5 46.5t-46.5 111.5z" />
<glyph unicode="&#x410;" horiz-adv-x="1648" d="M9 0l835 1774l795 -1774h-278l-177 407h-712l-184 -407h-279zM576 647h507l-249 565z" />
<glyph unicode="&#x411;" horiz-adv-x="1308" d="M192 0v1678h841v-240h-583v-436h163q270 0 422 -135q73 -65 115.5 -161t42.5 -208q0 -49 -10 -100.5t-32.5 -107t-65 -108t-100.5 -91.5q-44 -30 -92.5 -49.5t-99 -28t-88.5 -11t-87 -2.5h-426zM450 240h154q22 0 39 0.5t54 5.5t65 14t62.5 28t57 45t38 68t15.5 95 q0 20 -2.5 39.5t-10.5 47t-21.5 51t-38.5 48t-58 41.5t-83.5 28t-112.5 11h-158v-522z" />
<glyph unicode="&#x412;" horiz-adv-x="1308" d="M192 0v1678h254h18q52 0 80 -0.5t77 -5t83 -13.5t76.5 -26.5t79.5 -43.5q85 -58 137 -151.5t52 -227.5q0 -40 -5.5 -75t-20 -76t-45.5 -81t-77 -75q76 -23 134 -67.5t91.5 -101t50 -116t16.5 -120.5q0 -41 -7 -86t-24.5 -98t-52 -105t-83.5 -92q-35 -29 -74 -50 t-82.5 -33.5t-76 -20t-80.5 -10t-69 -3t-66 -0.5h-386zM450 240h154q79 0 140 16.5t96 41.5t57.5 60t30 67.5t7.5 68.5q0 37 -8.5 70.5t-31 67.5t-58 58t-94.5 39.5t-135 15.5h-158v-505zM450 956h78q19 0 33 0.5t45 5.5t53.5 13.5t51 26.5t46.5 43.5t30.5 66t12.5 91.5 q0 47 -12 85t-29.5 62t-44 42t-49.5 26.5t-51.5 13t-43.5 5.5t-33 1h-87v-482z" />
<glyph unicode="&#x413;" horiz-adv-x="1063" d="M192 0v1678h839v-240h-581v-1438h-258z" />
<glyph unicode="&#x414;" horiz-adv-x="1628" d="M34 240q87 2 156 63t110 164q31 80 45 183.5t14 257.5v770h1050v-1438h187v-619h-240v379h-1083v-379h-239v619zM427 240h723v1198h-532v-532q0 -309 -60 -467q-47 -125 -131 -199z" />
<glyph unicode="&#x415;" horiz-adv-x="1240" d="M192 0v1678h924v-240h-666v-403h647v-239h-647v-556h666v-240h-924z" />
<glyph unicode="&#x416;" horiz-adv-x="2127" d="M9 0l707 908l-689 770h311l597 -686v686h258v-686l597 686h311l-690 -770l707 -908h-321l-604 791v-791h-258v791l-604 -791h-322z" />
<glyph unicode="&#x417;" horiz-adv-x="1422" d="M62 371l226 118q22 -54 52.5 -98.5t62.5 -73t70.5 -50t70.5 -33t68 -18.5t58.5 -8.5t45.5 -1.5q53 0 112.5 13.5t103.5 41.5q117 72 117 219q0 54 -14 98t-37 73.5t-57 51.5t-67.5 33.5t-75.5 18.5t-74 9t-70 2h-151v240h151q135 0 217.5 67.5t82.5 184.5q0 92 -58 146 q-69 67 -199 67q-42 0 -79 -6t-83.5 -22t-92 -52t-85.5 -90l-170 163q110 129 229 188t279 59q225 0 369 -120q77 -66 108 -142.5t31 -170.5q0 -71 -18.5 -131.5t-51 -103t-65 -71t-71.5 -50.5q153 -42 232 -156.5t79 -269.5q0 -133 -50.5 -236t-167.5 -180 q-82 -54 -186.5 -84t-208.5 -30q-439 0 -633 405z" />
<glyph unicode="&#x418;" horiz-adv-x="1772" d="M192 -71v1749h258v-1132l1132 1203v-1749h-260v1131z" />
<glyph unicode="&#x419;" horiz-adv-x="1772" d="M192 -71v1749h258v-1132l1132 1203v-1749h-260v1131zM472 2092l201 89q19 -66 78 -102.5t135.5 -36.5t135 36t78.5 103l201 -89q-34 -86 -102.5 -145.5t-147 -85t-164.5 -25.5t-165 25.5t-147.5 85t-102.5 145.5z" />
<glyph unicode="&#x41a;" horiz-adv-x="1461" d="M192 0v1678h258v-669l647 669h336l-757 -761l762 -917h-341l-647 805v-805h-258z" />
<glyph unicode="&#x41b;" horiz-adv-x="1623" d="M34 0v240q56 -14 83 -14q43 0 89.5 15.5t71.5 39.5q24 22 40.5 59.5t24.5 74t12.5 90.5t5.5 87t1 87v999h1071v-1678h-258v1438h-555v-837q0 -68 -2.5 -116t-12 -109.5t-27 -107.5t-50 -94.5t-78.5 -86.5q-119 -101 -294 -101q-68 0 -122 14z" />
<glyph unicode="&#x41c;" horiz-adv-x="2127" d="M144 0l352 1802l583 -1299l588 1299l317 -1802h-264l-167 1011l-489 -1088l-481 1090l-176 -1013h-263z" />
<glyph unicode="&#x41d;" horiz-adv-x="1614" d="M192 0v1678h258v-658h714v658h260v-1678h-260v782h-714v-782h-258z" />
<glyph unicode="&#x41e;" horiz-adv-x="1973" d="M115 837q0 182 66.5 344t181.5 278t277.5 184t347 68t347 -68t277.5 -184t181 -278t66 -344q0 -181 -66 -342t-180.5 -277.5t-277 -184t-348 -67.5t-348 67.5t-277.5 184t-181 277.5t-66 342zM384 837q0 -137 44.5 -254t123.5 -200t191.5 -130t244 -47t244 47t191.5 130 t123.5 200t44.5 254t-44.5 255t-123.5 201t-191.5 130.5t-244 47.5t-244 -47.5t-191.5 -130.5t-123.5 -201t-44.5 -255z" />
<glyph unicode="&#x41f;" horiz-adv-x="1614" d="M192 0v1678h1232v-1678h-260v1438h-714v-1438h-258z" />
<glyph unicode="&#x420;" horiz-adv-x="1192" d="M192 0v1678h368q107 0 194.5 -17.5t173.5 -73.5q60 -40 102.5 -92t64.5 -108t31.5 -106.5t9.5 -101.5q0 -122 -46 -214t-118 -153q-154 -131 -409 -131h-113v-681h-258zM450 920h113q27 0 52.5 2t58.5 8.5t60 18t54.5 31.5t46.5 46.5t31 66.5t12 89q0 50 -13.5 90.5 t-34 67t-50.5 45.5t-57 29t-61 15.5t-55.5 7t-46.5 1.5h-110v-518z" />
<glyph unicode="&#x421;" horiz-adv-x="1547" d="M115 832q0 116 24 224.5t86 224t159 207.5q126 120 274.5 171.5t331.5 51.5q149 0 254.5 -33t193.5 -91v-302q-192 186 -453 186q-134 0 -247 -48.5t-190.5 -133t-120.5 -202.5t-43 -255q0 -133 44.5 -248.5t123 -198.5t190.5 -131t243 -48q249 0 453 194v-306 q-198 -128 -460 -128q-348 0 -594 233q-269 257 -269 633z" />
<glyph unicode="&#x422;" horiz-adv-x="1072" d="M23 1438v240h1026v-240h-383v-1438h-259v1438h-384z" />
<glyph unicode="&#x423;" horiz-adv-x="1432" d="M14 1678h312l438 -871l386 871h268l-757 -1678h-268l225 501z" />
<glyph unicode="&#x424;" horiz-adv-x="2065" d="M115 892q0 132 36.5 238.5t90.5 172.5t133 115t145 72t146 36.5t117.5 15t76.5 1.5h43v201h259v-201h43q39 0 76.5 -1.5t117.5 -15t146 -36.5t145 -72t133 -115t90.5 -172.5t36.5 -238.5q0 -111 -26.5 -207.5t-84.5 -179.5t-144 -142t-211 -92t-279 -33h-43v-238h-259 v238h-43q-154 0 -279 33t-211 92t-144 142t-84.5 179.5t-26.5 207.5zM373 892q0 -89 29.5 -163.5t87 -131t150.5 -88.5t213 -32h50v826h-50q-121 0 -214 -32t-150.5 -88.5t-86.5 -130t-29 -160.5zM1162 477h50q120 0 213 32t150.5 88.5t87 131t29.5 163.5q0 87 -29 160.5 t-86 130t-150.5 88.5t-214.5 32h-50v-826z" />
<glyph unicode="&#x425;" horiz-adv-x="1370" d="M23 0l528 875l-462 803h288l325 -569l336 569h288l-485 -803l506 -875h-288l-366 642l-382 -642h-288z" />
<glyph unicode="&#x426;" horiz-adv-x="1648" d="M192 0v1678h258v-1438h691v1438h258v-1438h216v-619h-239v379h-1184z" />
<glyph unicode="&#x427;" horiz-adv-x="1509" d="M144 1182v496h258v-459q0 -28 0.5 -40t2.5 -42t7.5 -49t15 -44.5t26 -46t37.5 -36.5q40 -32 104 -42.5t167 -10.5q162 0 297 20v750h258v-1678h-258v688q-20 -2 -76 -6.5t-74 -6t-54.5 -4t-63 -3t-55.5 -0.5q-293 0 -427 107q-165 129 -165 407z" />
<glyph unicode="&#x428;" horiz-adv-x="2337" d="M192 0v1678h258v-1438h590v1438h259v-1438h589v1438h259v-1678h-1955z" />
<glyph unicode="&#x429;" horiz-adv-x="2396" d="M192 0v1678h258v-1438h590v1438h259v-1438h589v1438h259v-1438h215v-619h-238v379h-1932z" />
<glyph unicode="&#x42a;" horiz-adv-x="1484" d="M23 1438v240h638v-676h187q266 0 421 -135q73 -63 116.5 -160t43.5 -206q0 -50 -10.5 -101.5t-33 -108t-65.5 -109t-101 -91.5q-44 -30 -92.5 -49.5t-99 -28t-89 -11t-87.5 -2.5h-449v1438h-379zM661 240h178q22 0 39 0.5t54 5.5t64.5 14t62 28t57 45t38 68t15.5 95 q0 20 -2 39.5t-10 47t-21.5 51t-38.5 48t-58 41.5t-83.5 28t-111.5 11h-183v-522z" />
<glyph unicode="&#x42b;" horiz-adv-x="1839" d="M192 0v1678h258v-676h188q265 0 421 -135q72 -63 115 -160t43 -206q0 -50 -10.5 -101.5t-32.5 -108t-64.5 -109t-100.5 -91.5q-45 -30 -93 -49.5t-98.5 -28t-88.5 -11t-87 -2.5h-450zM450 240h178q23 0 39.5 0.5t53.5 5.5t65 14t62 28t56.5 45t38 68t15.5 95 q0 20 -2 39.5t-10 47t-21.5 51t-38 48t-57.5 41.5t-83.5 28t-112.5 11h-183v-522zM1390 0v1678h259v-1678h-259z" />
<glyph unicode="&#x42c;" horiz-adv-x="1274" d="M192 0v1678h258v-676h188q265 0 421 -135q72 -63 115 -160t43 -206q0 -50 -10.5 -101.5t-32.5 -108t-64.5 -109t-100.5 -91.5q-45 -30 -93 -49.5t-98.5 -28t-88.5 -11t-87 -2.5h-450zM450 240h178q23 0 39.5 0.5t53.5 5.5t65 14t62 28t56.5 45t38 68t15.5 95 q0 20 -2 39.5t-10 47t-21.5 51t-38 48t-57.5 41.5t-83.5 28t-112.5 11h-183v-522z" />
<glyph unicode="&#x42d;" horiz-adv-x="1552" d="M115 94v301q212 -189 461 -189q144 0 260.5 48t191.5 130q64 68 103 160.5t44 196.5h-835v239h826q-13 98 -54 183t-99 147q-154 161 -421 161q-261 0 -477 -186v302q38 25 76.5 44t97 38.5t138 30.5t174.5 11q359 0 588 -220q115 -112 182 -274t67 -376 q0 -393 -249 -642q-46 -45 -100 -83.5t-127.5 -73.5t-168 -55.5t-199.5 -20.5q-272 0 -479 128z" />
<glyph unicode="&#x42e;" horiz-adv-x="2501" d="M192 0v1678h258v-667h259q40 257 216 448q32 34 68.5 65t94 66.5t121 61t150 42.5t180.5 17q182 0 340 -67.5t269.5 -183.5t175 -278t63.5 -345t-64 -343.5t-175 -276.5t-269.5 -183.5t-339.5 -67.5q-110 0 -210 23t-167.5 54.5t-128.5 76t-92.5 76t-58.5 65.5 q-78 95 -128.5 225.5t-53.5 284.5h-250v-771h-258zM958 839q0 -136 43 -253.5t119 -201t184.5 -131t234 -47.5t233.5 47.5t184 131t119 201t43 253.5t-43.5 253.5t-119.5 200.5t-183.5 130.5t-233 47.5t-233 -47.5t-184 -130.5t-120 -200.5t-43.5 -253.5z" />
<glyph unicode="&#x42f;" horiz-adv-x="1333" d="M48 0l498 700q-65 7 -135.5 37t-122.5 75q-144 124 -144 357q0 210 129 350q30 32 65.5 58t67 42.5t70.5 28t67.5 17.5t68 9t61 3.5t56.5 0.5h414v-1678h-258v670h-60l-461 -670h-316zM402 1169q0 -62 23 -115.5t64 -85.5q77 -58 254 -58h142v528h-128q-99 0 -171 -16.5 t-114 -60.5q-32 -33 -51 -89t-19 -103z" />
<glyph unicode="&#x430;" horiz-adv-x="1322" d="M96 530q0 86 21 167.5t64.5 152.5t104 124t144 83.5t181.5 30.5q206 0 319 -153v124h245v-1059h-245v110q-124 -144 -322 -144q-94 0 -176.5 31t-143 85.5t-104.5 126t-66 153.5t-22 168zM350 525q0 -91 34 -167t102.5 -123.5t160.5 -47.5q137 0 217 95.5t80 245.5 q0 82 -24.5 148.5t-66.5 107t-94.5 62t-111.5 21.5q-88 0 -156.5 -46t-104.5 -123.5t-36 -172.5z" />
<glyph unicode="&#x431;" horiz-adv-x="1322" d="M96 652q0 233 37 404t121 295q120 178 318 226l178 42q91 22 137.5 54.5t63.5 87.5h252q-28 -129 -116 -222.5t-218 -127.5l-169 -46q-34 -9 -42.5 -11.5t-38.5 -12t-42 -16t-37 -19t-40 -25.5t-34.5 -32t-36.5 -42q-41 -55 -62.5 -127t-23.5 -143h2q52 76 152.5 113.5 t206.5 37.5q229 0 372 -153q70 -74 110.5 -176.5t40.5 -223.5q0 -123 -44 -229.5t-119.5 -180.5t-180 -116.5t-222.5 -42.5q-116 0 -217.5 37.5t-170.5 104.5q-41 38 -72 84.5t-49.5 97t-30.5 96t-17 99t-6.5 88t-1.5 79.5zM350 525q0 -70 18 -127.5t48 -96t70.5 -65t84 -38 t90.5 -11.5t90.5 11.5t84 38t70.5 65t48 96t18 127.5q0 72 -18 130.5t-48.5 97t-71 65t-84 38t-89.5 11.5t-89.5 -11.5t-84 -38t-71 -65t-48.5 -97t-18 -130.5z" />
<glyph unicode="&#x432;" horiz-adv-x="1096" d="M149 0v1059h414q75 0 134.5 -12.5t107.5 -49.5q96 -79 96 -204q0 -69 -30.5 -122.5t-93.5 -83.5q85 -18 143 -72q82 -74 82 -204q0 -152 -115 -242q-92 -69 -245 -69h-493zM393 201h185q83 0 129 32q22 16 36 41.5t14 51.5q0 25 -12.5 50t-35.5 41q-39 29 -124 29h-192 v-245zM393 647h126q64 0 99 21q48 29 48 87q0 53 -44 82q-11 7 -22 12t-24 6.5t-20 2t-22.5 0.5h-18.5h-122v-211z" />
<glyph unicode="&#x433;" horiz-adv-x="814" d="M149 0v1059h647v-220h-403v-839h-244z" />
<glyph unicode="&#x434;" horiz-adv-x="1221" d="M9 220q131 10 197 139q27 55 35 119.5t8 161.5v419h796v-839h158v-522h-225v302h-743v-302h-226v522zM359 220h441v619h-316v-293q0 -229 -125 -326z" />
<glyph unicode="&#x435;" horiz-adv-x="1212" d="M96 522q0 169 62 297t178 198.5t270 70.5q136 0 238.5 -52.5t164.5 -141.5q47 -70 72.5 -173.5t25.5 -212.5v-39h-757q2 -70 28 -125.5t68 -88.5t90.5 -50.5t98.5 -17.5q94 0 168 58q10 7 23.5 20t40 49t43.5 77l206 -115q-62 -113 -138 -180q-45 -40 -101 -68 t-108.5 -40.5t-90 -17t-70.5 -4.5q-75 0 -147 20.5t-138.5 64.5t-116.5 108t-80 157.5t-30 205.5zM364 670h491q-22 91 -88 144t-156 53q-88 0 -155.5 -54.5t-91.5 -142.5z" />
<glyph unicode="&#x436;" horiz-adv-x="1566" d="M5 0l450 576l-412 483h297l321 -393v393h245v-393l321 393h298l-413 -483l450 -576h-307l-349 469v-469h-245v469l-350 -469h-306z" />
<glyph unicode="&#x437;" horiz-adv-x="1096" d="M96 218l196 100q31 -66 85 -105q37 -28 75 -37t87 -9q99 0 149 37q60 38 60 119q0 73 -48 104q-26 18 -59.5 23t-82.5 5h-126v201h110q70 0 105 25q43 29 43 88q0 58 -45 91q-43 27 -108 27q-81 0 -142 -34q-46 -23 -81 -67l-158 139q64 69 136 106q106 57 257 57 q174 0 270 -75q106 -84 106 -210q0 -73 -37 -130t-106 -86q76 -15 135 -68q85 -74 85 -188q0 -78 -37.5 -154t-111.5 -127q-120 -84 -304 -84q-187 0 -311 89q-83 59 -142 163z" />
<glyph unicode="&#x438;" horiz-adv-x="1269" d="M149 -82v1141h244v-602l728 698v-1155h-243v615z" />
<glyph unicode="&#x439;" horiz-adv-x="1269" d="M149 -82v1141h244v-602l728 698v-1155h-243v615zM230 1591l202 58q25 -91 78 -127t128 -36t127.5 36t78.5 127l201 -58q-38 -131 -153 -214t-254.5 -83t-254.5 83t-153 214z" />
<glyph unicode="&#x43a;" horiz-adv-x="1102" d="M149 0v1059h244v-389l357 389h321l-460 -462l486 -597h-311l-393 489v-489h-244z" />
<glyph unicode="&#x43b;" horiz-adv-x="1173" d="M19 0v220q28 -5 45 -5q39 0 73.5 14.5t56.5 38.5q14 15 22 32t11 39.5t3 31.5v36v652h796v-1059h-244v839h-318v-427q0 -195 -98 -304q-99 -113 -284 -113q-21 0 -63 5z" />
<glyph unicode="&#x43c;" horiz-adv-x="1456" d="M34 0l256 1155l439 -805l437 805l258 -1155h-249l-109 532l-337 -614l-338 614l-108 -532h-249z" />
<glyph unicode="&#x43d;" horiz-adv-x="1226" d="M149 0v1059h244v-393h441v393h245v-1059h-245v446h-441v-446h-244z" />
<glyph unicode="&#x43e;" horiz-adv-x="1322" d="M96 528q0 120 43.5 224.5t118.5 178t179.5 115.5t223.5 42t223.5 -42t180 -115.5t119 -178t43.5 -224.5q0 -119 -43.5 -224t-119 -179t-180 -116.5t-223 -42.5t-223.5 42.5t-180 116.5t-118.5 179t-43.5 224zM350 525q0 -70 18 -127.5t48 -96t70.5 -65t84 -38t90.5 -11.5 t90.5 11.5t84 38t70.5 65t48 96t18 127.5q0 72 -18 130.5t-48.5 97t-71 65t-84 38t-89.5 11.5t-89.5 -11.5t-84 -38t-71 -65t-48.5 -97t-18 -130.5z" />
<glyph unicode="&#x43f;" horiz-adv-x="1216" d="M149 0v1059h919v-1059h-243v839h-432v-839h-244z" />
<glyph unicode="&#x440;" horiz-adv-x="1322" d="M149 -503v1562h244v-115q36 43 80 73t87.5 44.5t80.5 20.5t73 6q103 0 196.5 -39.5t163.5 -110t111.5 -176t41.5 -230.5q0 -101 -29 -191.5t-79 -158t-115 -117t-139 -74.5t-149 -25q-27 0 -60.5 5.5t-80 20.5t-95 48.5t-87.5 81.5v-625h-244zM379 525q0 -68 19.5 -128.5 t56 -107.5t94.5 -74.5t130 -27.5q89 0 157 46.5t102 123.5t34 173q0 80 -24.5 145t-66.5 106.5t-94 63.5t-108 22q-59 0 -112 -22t-95.5 -63.5t-67.5 -108t-25 -148.5z" />
<glyph unicode="&#x441;" horiz-adv-x="1049" d="M96 522q0 259 172 422q82 77 178.5 110.5t219.5 33.5q181 0 306 -77v-321q-50 82 -132.5 129.5t-173.5 47.5q-60 0 -115.5 -22.5t-101 -63.5t-72.5 -107t-27 -146q0 -94 36 -170.5t108.5 -123.5t168.5 -47q188 0 309 179v-320q-138 -80 -291 -80q-274 0 -434 164 q-151 151 -151 392z" />
<glyph unicode="&#x442;" horiz-adv-x="905" d="M19 839v220h868v-220h-311v-839h-245v839h-312z" />
<glyph unicode="&#x443;" horiz-adv-x="1212" d="M14 1059h297l311 -597l298 597h278l-803 -1562h-278l370 700z" />
<glyph unicode="&#x444;" horiz-adv-x="1671" d="M101 530q0 257 175 407q52 44 114.5 74t124.5 43t107.5 17.5t91.5 4.5v602h244v-602q46 0 92 -4.5t108 -17.5t124.5 -43t114.5 -74q174 -149 174 -407q0 -262 -176 -411q-166 -139 -437 -135v-487h-244v487q-270 -4 -436 135q-177 150 -177 411zM355 530q0 -91 35.5 -158 t89.5 -106q44 -31 107 -47.5t127 -14.5v651q-59 0 -121.5 -12.5t-105.5 -42.5q-58 -37 -95 -107.5t-37 -162.5zM958 204q64 -2 127.5 14.5t107.5 47.5q54 39 89 105.5t35 158.5q0 93 -36.5 163.5t-94.5 106.5q-43 30 -106 42.5t-122 12.5v-651z" />
<glyph unicode="&#x445;" horiz-adv-x="1244" d="M14 0l468 572l-377 487h293l233 -309l236 309h302l-390 -487l453 -572h-297l-304 395l-315 -395h-302z" />
<glyph unicode="&#x446;" horiz-adv-x="1255" d="M149 0v1059h244v-839h421v839h245v-839h178v-522h-226v302h-862z" />
<glyph unicode="&#x447;" horiz-adv-x="1116" d="M124 718v341h245v-290q0 -52 13.5 -88.5t51.5 -58.5q43 -23 122 -23q84 0 167 27v433h245v-1059h-245v410q-116 -22 -218 -22q-178 0 -277 76q-62 49 -83 111.5t-21 142.5z" />
<glyph unicode="&#x448;" horiz-adv-x="1738" d="M149 0v1059h244v-839h355v839h244v-839h355v839h244v-1059h-1442z" />
<glyph unicode="&#x449;" horiz-adv-x="1786" d="M149 0v1059h244v-839h355v839h244v-839h355v839h244v-839h177v-522h-225v302h-1394z" />
<glyph unicode="&#x44a;" horiz-adv-x="1091" d="M19 839v220h470v-376h144q41 0 63.5 -0.5t63 -6t69 -16t62.5 -32t63 -52.5q81 -88 81 -231q0 -160 -95 -254q-24 -22 -47.5 -38.5t-52 -26.5t-48 -15.5t-54.5 -7.5t-51 -2.5t-56 -0.5h-386v839h-226zM489 211h110q87 0 128 24q55 34 55 108q0 70 -53 105q-39 24 -128 24 h-112v-261z" />
<glyph unicode="&#x44b;" horiz-adv-x="1441" d="M149 0v1059h244v-376h144q39 0 61.5 -0.5t64 -6t70.5 -16t64 -32.5t63 -52q80 -89 80 -231q0 -166 -96 -256q-27 -26 -59 -43.5t-58 -26.5t-65 -13.5t-61.5 -5t-65.5 -0.5h-386zM393 211h110q87 0 128 24q55 34 55 108q0 70 -53 105q-39 24 -128 24h-112v-261zM1049 0 v1059h245v-1059h-245z" />
<glyph unicode="&#x44c;" horiz-adv-x="995" d="M149 0v1059h244v-376h144q39 0 61.5 -0.5t64 -6t70.5 -16t64 -32.5t63 -52q80 -89 80 -231q0 -166 -96 -256q-27 -26 -59 -43.5t-58 -26.5t-65 -13.5t-61.5 -5t-65.5 -0.5h-386zM393 211h110q87 0 128 24q55 34 55 108q0 70 -53 105q-39 24 -128 24h-112v-261z" />
<glyph unicode="&#x44d;" horiz-adv-x="1068" d="M96 29v234q74 -42 154.5 -57.5t142.5 -15.5q74 0 138.5 26.5t112 84t60.5 138.5h-491v220h482q-16 66 -63.5 114t-109.5 71t-131 23t-148 -18t-147 -51v235q133 55 288 55q138 0 250 -42t185.5 -117.5t113 -179.5t39.5 -227q0 -120 -41.5 -223t-115 -176.5t-178 -115 t-225.5 -41.5q-82 0 -151.5 12.5t-98.5 23t-66 27.5z" />
<glyph unicode="&#x44e;" horiz-adv-x="1749" d="M149 0v1059h244v-393h170q29 151 139 264q158 158 395 158q120 0 223.5 -42.5t176.5 -117t114.5 -178.5t41.5 -222q0 -121 -42 -225.5t-116 -178.5t-177 -116t-221 -42q-253 0 -407 171q-116 132 -130 309h-167v-446h-244zM791 525q0 -87 26 -154t70 -106t96.5 -58.5 t111.5 -19.5t111.5 19.5t96.5 58.5t70 106t26 154q0 89 -25.5 157t-70 107t-97 58.5t-111.5 19.5q-60 0 -113 -19.5t-97 -59t-69 -107t-25 -156.5z" />
<glyph unicode="&#x44f;" horiz-adv-x="1043" d="M19 0l333 419q-94 11 -167 77q-89 82 -89 222q0 154 96 245q61 57 135.5 76.5t173.5 19.5h395v-1059h-244v391h-55l-290 -391h-288zM316 718q0 -69 50 -103q39 -23 137 -23h149v256h-151q-90 0 -130 -23q-55 -34 -55 -107z" />
<glyph unicode="&#x451;" horiz-adv-x="1212" d="M96 522q0 169 62 297t178 198.5t270 70.5q136 0 238.5 -52.5t164.5 -141.5q47 -70 72.5 -173.5t25.5 -212.5v-39h-757q2 -70 28 -125.5t68 -88.5t90.5 -50.5t98.5 -17.5q94 0 168 58q10 7 23.5 20t40 49t43.5 77l206 -115q-62 -113 -138 -180q-45 -40 -101 -68 t-108.5 -40.5t-90 -17t-70.5 -4.5q-75 0 -147 20.5t-138.5 64.5t-116.5 108t-80 157.5t-30 205.5zM249 1495q0 65 46.5 111.5t111.5 46.5t111.5 -46.5t46.5 -111.5t-46.5 -111.5t-111.5 -46.5t-111.5 46.5t-46.5 111.5zM364 670h491q-22 91 -88 144t-156 53 q-88 0 -155.5 -54.5t-91.5 -142.5zM700 1495q0 65 46.5 111.5t111.5 46.5t111.5 -46.5t46.5 -111.5t-46.5 -111.5t-111.5 -46.5t-111.5 46.5t-46.5 111.5z" />
<glyph unicode="&#x2000;" horiz-adv-x="1090" />
<glyph unicode="&#x2001;" horiz-adv-x="2181" />
<glyph unicode="&#x2002;" horiz-adv-x="1090" />
<glyph unicode="&#x2003;" horiz-adv-x="2181" />
<glyph unicode="&#x2004;" horiz-adv-x="727" />
<glyph unicode="&#x2005;" horiz-adv-x="545" />
<glyph unicode="&#x2006;" horiz-adv-x="363" />
<glyph unicode="&#x2007;" horiz-adv-x="363" />
<glyph unicode="&#x2008;" horiz-adv-x="272" />
<glyph unicode="&#x2009;" horiz-adv-x="436" />
<glyph unicode="&#x200a;" horiz-adv-x="121" />
<glyph unicode="&#x2010;" horiz-adv-x="794" d="M96 407v254h604v-254h-604z" />
<glyph unicode="&#x2011;" horiz-adv-x="794" d="M96 407v254h604v-254h-604z" />
<glyph unicode="&#x2012;" horiz-adv-x="794" d="M96 407v254h604v-254h-604z" />
<glyph unicode="&#x2013;" horiz-adv-x="1214" d="M96 407v254h1024v-254h-1024z" />
<glyph unicode="&#x2014;" horiz-adv-x="2238" d="M96 407v254h2048v-254h-2048z" />
<glyph unicode="&#x202f;" horiz-adv-x="436" />
<glyph unicode="&#x205f;" horiz-adv-x="545" />
<glyph unicode="&#x2116;" horiz-adv-x="2650" d="M192 0v1788l1114 -1212v1102h258v-1779l-1114 1213v-1112h-258zM1740 1282q0 107 55.5 198.5t148.5 144.5t201 53t201.5 -53.5t148 -145t54.5 -197.5q0 -77 -31.5 -149.5t-85.5 -126.5t-129.5 -86.5t-157.5 -32.5t-157 32.5t-129.5 86t-86.5 126.5t-32 150zM1790 510v201 h709v-201h-709zM1936 1282.5q0 -52.5 23 -100.5t72 -81t114 -33q51 0 92 19t65.5 50.5t37.5 68.5t13 76t-13 76t-38 68t-65.5 50t-91.5 19q-65 0 -114 -32.5t-72 -80t-23 -100z" />
<glyph unicode="&#x25fc;" horiz-adv-x="1054" d="M0 0v1054h1054v-1054h-1054z" />
</font>
</defs>
</svg>
